<svg width="256" height="262" viewBox="0 0 256 262" fill="none" xmlns="http://www.w3.org/2000/svg">
  <path d="M255.878 133.451C255.878 124.214 255.113 117.474 253.464 110.48H130.55V159.09H202.721C201.267 171.171 193.414 189.37 175.956 201.577L175.711 203.204L214.59 233.871L217.284 234.145C242.017 211.033 255.878 176.966 255.878 133.451Z" fill="#4285F4"/>
  <path d="M130.55 261.998C165.903 261.998 195.563 250.197 217.284 234.145L175.956 201.577C164.905 209.461 150.074 214.948 130.55 214.948C95.9223 214.948 66.5532 191.836 56.0846 159.853L54.5741 159.983L14.1477 191.839L13.6279 193.299C35.2511 236.432 79.0649 261.998 130.55 261.998Z" fill="#34A853"/>
  <path d="M56.0846 159.853C53.3229 152.859 51.7222 145.262 51.7222 137.412C51.7222 129.561 53.3229 121.965 55.9391 114.971L55.8672 113.236L14.9435 80.8696L13.6279 81.5237C4.71465 99.4692 0 117.726 0 137.412C0 157.098 4.71465 175.355 13.6279 193.299L56.0846 159.853Z" fill="#FBBC05"/>
  <path d="M130.55 59.8751C155.184 59.8751 171.823 70.8238 181.319 79.9779L218.158 43.5822C195.417 21.8975 165.903 8 130.55 8C79.0649 8 35.2511 33.5654 13.6279 81.5237L55.9391 114.971C66.5532 82.9874 95.9223 59.8751 130.55 59.8751Z" fill="#EB4335"/>
</svg>
